<svg width="192" height="192" viewBox="0 0 192 192" fill="none" xmlns="http://www.w3.org/2000/svg">
    <path d="M99.5996 162.965V112.217C121.52 104.131 145.798 26.6576 145.798 26.6576C145.798 26.6576 119.663 95.0843 96.002 95.0843C72.3425 95.0843 46.2017 26.6576 46.2017 26.6576C46.2017 26.6576 70.4815 104.131 92.4023 112.217V162.965C79.1322 163.537 68.8874 167.247 68.8874 171.738C68.8874 176.627 81.0233 180.592 96.002 180.592C110.977 180.592 123.116 176.625 123.116 171.738C123.116 167.247 112.87 163.537 99.5996 162.965Z" fill="#4C5D6D"/>
    <path d="M101.242 70.4084L144.742 11.4084" stroke="#4C5D6D"/>
    <path d="M103.209 71.6389L101.179 70.1387C96.7828 67.7296 91.1716 68.9327 88.1583 73.0984C84.8899 77.6135 85.9057 83.9133 90.4168 87.1797C94.9339 90.442 101.238 89.4342 104.502 84.9211C107.517 80.7493 106.873 75.0558 103.209 71.6389Z" fill="#CB500B"/>
</svg>
